<svg width="72" height="72" viewBox="0 0 72 72" fill="none" xmlns="http://www.w3.org/2000/svg">
<path d="M21 21V15C21 13.2626 21.5029 11.5624 22.448 10.1046C23.393 8.64673 24.7399 7.49358 26.3259 6.78432C27.9119 6.07507 29.6692 5.84002 31.3859 6.10755C33.1025 6.37508 34.705 7.13376 36 8.292C37.295 7.13376 38.8975 6.37508 40.6141 6.10755C42.3308 5.84002 44.0881 6.07507 45.6741 6.78432C47.2601 7.49358 48.6069 8.64673 49.552 10.1046C50.4971 11.5624 51 13.2626 51 15V21H55.5C56.6935 21 57.8381 21.4741 58.682 22.318C59.5259 23.1619 60 24.3065 60 25.5V34.494C58.5562 33.8931 57.0453 33.468 55.5 33.228V25.5H43.53V35.181C41.8846 36.0347 40.3694 37.1186 39.03 38.4V25.5H16.5V54C16.5 54.9849 16.694 55.9602 17.0709 56.8701C17.4478 57.7801 18.0003 58.6069 18.6967 59.3033C19.3931 59.9997 20.2199 60.5522 21.1299 60.9291C22.0398 61.306 23.0151 61.5 24 61.5H35.196C36.0543 63.1463 37.1433 64.6616 38.43 66H24C20.8174 66 17.7652 64.7357 15.5147 62.4853C13.2643 60.2348 12 57.1826 12 54V25.5C12 24.3065 12.4741 23.1619 13.318 22.318C14.1619 21.4741 15.3065 21 16.5 21H21ZM34.5 21V15C34.5 13.8065 34.0259 12.6619 33.182 11.818C32.3381 10.9741 31.1935 10.5 30 10.5C28.8065 10.5 27.6619 10.9741 26.818 11.818C25.9741 12.6619 25.5 13.8065 25.5 15V21H34.5ZM39 21H46.5V15C46.5001 14.0737 46.2143 13.1699 45.6817 12.4121C45.1491 11.6542 44.3956 11.0792 43.524 10.7655C42.6525 10.4518 41.7053 10.4147 40.8119 10.6593C39.9185 10.9038 39.1223 11.4181 38.532 12.132C38.835 13.032 39 13.998 39 15V21ZM52.5 36C56.8761 36 61.0729 37.7384 64.1673 40.8327C67.2616 43.9271 69 48.1239 69 52.5C69 56.8761 67.2616 61.0729 64.1673 64.1673C61.0729 67.2616 56.8761 69 52.5 69C48.1239 69 43.9271 67.2616 40.8327 64.1673C37.7384 61.0729 36 56.8761 36 52.5C36 48.1239 37.7384 43.9271 40.8327 40.8327C43.9271 37.7384 48.1239 36 52.5 36ZM54.003 61.509V54H61.491C61.8888 54 62.2704 53.842 62.5517 53.5607C62.833 53.2794 62.991 52.8978 62.991 52.5C62.991 52.1022 62.833 51.7206 62.5517 51.4393C62.2704 51.158 61.8888 51 61.491 51H54V43.5C54 43.1022 53.842 42.7206 53.5607 42.4393C53.2794 42.158 52.8978 42 52.5 42C52.1022 42 51.7206 42.158 51.4393 42.4393C51.158 42.7206 51 43.1022 51 43.5V51H43.488C43.0902 51 42.7086 51.158 42.4273 51.4393C42.146 51.7206 41.988 52.1022 41.988 52.5C41.988 52.8978 42.146 53.2794 42.4273 53.5607C42.7086 53.842 43.0902 54 43.488 54H51V61.509C51 61.9068 51.158 62.2884 51.4393 62.5697C51.7206 62.851 52.1022 63.009 52.5 63.009C52.8978 63.009 53.2794 62.851 53.5607 62.5697C53.842 62.2884 54.003 61.9068 54.003 61.509Z" fill="white"/>
</svg>
