<svg width="72" height="72" viewBox="0 0 72 72" fill="none" xmlns="http://www.w3.org/2000/svg">
<path d="M20.784 60.903C23.3116 60.903 25.3605 58.854 25.3605 56.3265C25.3605 53.799 23.3116 51.75 20.784 51.75C18.2565 51.75 16.2075 53.799 16.2075 56.3265C16.2075 58.854 18.2565 60.903 20.784 60.903Z" stroke="white" stroke-width="2.8" stroke-linecap="round" stroke-linejoin="round"/>
<path d="M47.6327 60.903C50.1602 60.903 52.2092 58.854 52.2092 56.3265C52.2092 53.799 50.1602 51.75 47.6327 51.75C45.1051 51.75 43.0562 53.799 43.0562 56.3265C43.0562 58.854 45.1051 60.903 47.6327 60.903Z" stroke="white" stroke-width="2.8" stroke-linecap="round" stroke-linejoin="round"/>
<path d="M6.75 16.2075H13.767L20.784 51.75H47.6325" stroke="white" stroke-width="2.8" stroke-linecap="round" stroke-linejoin="round"/>
<path d="M56.25 34.0545C61.2206 34.0545 65.25 30.0251 65.25 25.0545C65.25 20.0839 61.2206 16.0545 56.25 16.0545C51.2794 16.0545 47.25 20.0839 47.25 25.0545C47.25 30.0251 51.2794 34.0545 56.25 34.0545Z" stroke="white" stroke-width="2.8" stroke-linecap="round" stroke-linejoin="round"/>
<path d="M61.7413 13.92L60.1498 16.9485M48.7753 13.386L54.8008 11.097M56.2498 25.0545L54.3433 19.563M15.1108 23.016L42.2158 24.369M19.5463 45.4845H50.9113C55.7923 45.4845 56.2513 38.8605 56.2513 38.8605M16.7338 31.2345L43.7413 31.9965M18.0943 38.1315L52.7068 38.793M45.8008 45.4845L47.2498 35.58M37.1053 45.4845L36.8758 24.102M26.4283 23.5815L28.6633 45.4845" stroke="white" stroke-width="2.8" stroke-linecap="round" stroke-linejoin="round"/>
</svg>
