<svg width="72" height="72" viewBox="0 0 72 72" fill="none" xmlns="http://www.w3.org/2000/svg">
<path d="M20.784 60.903C23.3116 60.903 25.3605 58.854 25.3605 56.3265C25.3605 53.799 23.3116 51.75 20.784 51.75C18.2565 51.75 16.2075 53.799 16.2075 56.3265C16.2075 58.854 18.2565 60.903 20.784 60.903Z" stroke="#A1A1A1" stroke-width="2.8" stroke-linecap="round" stroke-linejoin="round"/>
<path d="M47.6324 60.903C50.1599 60.903 52.2089 58.854 52.2089 56.3265C52.2089 53.799 50.1599 51.75 47.6324 51.75C45.1049 51.75 43.0559 53.799 43.0559 56.3265C43.0559 58.854 45.1049 60.903 47.6324 60.903Z" stroke="#A1A1A1" stroke-width="2.8" stroke-linecap="round" stroke-linejoin="round"/>
<path d="M6.75 16.2075H13.767L20.784 51.75H47.6325" stroke="#A1A1A1" stroke-width="2.8" stroke-linecap="round" stroke-linejoin="round"/>
<path d="M56.25 34.0545C61.2206 34.0545 65.25 30.0251 65.25 25.0545C65.25 20.0839 61.2206 16.0545 56.25 16.0545C51.2794 16.0545 47.25 20.0839 47.25 25.0545C47.25 30.0251 51.2794 34.0545 56.25 34.0545Z" stroke="#A1A1A1" stroke-width="2.8" stroke-linecap="round" stroke-linejoin="round"/>
<path d="M61.7416 13.92L60.1501 16.9485M48.7756 13.386L54.8011 11.097M56.2501 25.0545L54.3436 19.563M15.1111 23.016L42.2161 24.369M19.5466 45.4845H50.9116C55.7926 45.4845 56.2516 38.8605 56.2516 38.8605M16.7341 31.2345L43.7416 31.9965M18.0946 38.1315L52.7071 38.793M45.8011 45.4845L47.2501 35.58M37.1056 45.4845L36.8761 24.102M26.4286 23.5815L28.6636 45.4845" stroke="#A1A1A1" stroke-width="2.8" stroke-linecap="round" stroke-linejoin="round"/>
</svg>
