<svg width="72" height="72" viewBox="0 0 72 72" fill="none" xmlns="http://www.w3.org/2000/svg">
<path d="M50.3371 50.25V62.25H56.3371M24.8806 53.9745C26.6116 55.272 28.3426 55.704 31.8031 55.704H33.5341C34.2728 55.704 35.0042 55.5585 35.6867 55.2758C36.3691 54.9931 36.9892 54.5788 37.5116 54.0565C38.0339 53.5342 38.4482 52.9141 38.7309 52.2316C39.0136 51.5491 39.1591 50.8177 39.1591 50.079C39.1591 49.3403 39.0136 48.6089 38.7309 47.9264C38.4482 47.244 38.0339 46.6239 37.5116 46.1015C36.9892 45.5792 36.3691 45.1649 35.6867 44.8822C35.0042 44.5995 34.2728 44.454 33.5341 44.454H29.6401C28.1482 44.454 26.7175 43.8614 25.6626 42.8065C24.6077 41.7516 24.0151 40.3208 24.0151 38.829C24.0151 37.3372 24.6077 35.9064 25.6626 34.8515C26.7175 33.7966 28.1482 33.204 29.6401 33.204H31.3711C35.2651 33.204 36.9961 33.6375 38.2936 34.935M15.6136 25.1595V21.24C15.6136 12.4095 22.7731 5.25 31.6036 5.25C40.4341 5.25 47.5936 12.4095 47.5936 21.24V25.1595M45.9361 63.7005C45.6824 63.7333 45.4269 63.7498 45.1711 63.75H18.0061C16.5346 63.7507 15.1141 63.2106 14.0148 62.2324C12.9154 61.2542 12.2139 59.9061 12.0436 58.4445L8.16309 25.1595H55.0081L52.6051 45.8025M63.8371 56.25C63.8371 59.0348 62.7308 61.7055 60.7617 63.6746C58.7926 65.6438 56.1219 66.75 53.3371 66.75C50.5523 66.75 47.8816 65.6438 45.9125 63.6746C43.9433 61.7055 42.8371 59.0348 42.8371 56.25C42.8371 53.4652 43.9433 50.7945 45.9125 48.8254C47.8816 46.8562 50.5523 45.75 53.3371 45.75C56.1219 45.75 58.7926 46.8562 60.7617 48.8254C62.7308 50.7945 63.8371 53.4652 63.8371 56.25Z" stroke="white" stroke-width="2.8" stroke-linecap="round" stroke-linejoin="round"/>
</svg>
